<svg xmlns="http://www.w3.org/2000/svg" xmlns:xlink="http://www.w3.org/1999/xlink" width="982" zoomAndPan="magnify" viewBox="0 0 736.5 449.999984" height="600" preserveAspectRatio="xMidYMid meet" version="1.0"><defs><clipPath id="fdbb0f46c6"><path d="M 656 284 L 736 284 L 736 447 L 656 447 Z M 656 284 " clip-rule="nonzero"/></clipPath><clipPath id="6349df30bf"><path d="M 0 0.152344 L 412 0.152344 L 412 449.847656 L 0 449.847656 Z M 0 0.152344 " clip-rule="nonzero"/></clipPath><clipPath id="96cb60a63e"><path d="M 75.035156 449.660156 C 70.035156 449.660156 65.296875 448.960938 60.824219 447.570312 C 56.351562 446.175781 52.332031 444.414062 48.773438 442.285156 C 45.210938 440.15625 42.214844 438.066406 39.792969 436.015625 C 37.367188 433.96875 35.546875 432.292969 34.335938 430.976562 C 32.515625 429.011719 30.960938 427.128906 29.675781 425.324219 C 28.382812 423.519531 27.742188 421.632812 27.742188 419.667969 C 27.742188 417.867188 28.273438 416.023438 29.335938 414.140625 C 30.394531 412.257812 31.683594 410.414062 33.199219 408.609375 C 35.167969 406.316406 36.953125 404.71875 38.542969 403.816406 C 40.136719 402.917969 41.761719 402.464844 43.433594 402.464844 C 45.707031 402.464844 47.714844 403.328125 49.457031 405.046875 C 51.199219 406.765625 53.28125 408.855469 55.710938 411.316406 C 56.917969 412.296875 58.515625 413.488281 60.484375 414.878906 C 62.453125 416.273438 64.726562 417.457031 67.308594 418.441406 C 69.878906 419.425781 72.839844 419.917969 76.175781 419.917969 C 80.269531 419.917969 83.867188 419.140625 86.976562 417.582031 C 90.082031 416.027344 92.660156 413.773438 94.707031 410.820312 C 96.75 407.875 98.304688 404.394531 99.367188 400.375 C 100.425781 396.359375 100.957031 391.980469 100.957031 387.226562 L 100.957031 293.578125 C 100.957031 290.464844 101.222656 287.640625 101.753906 285.097656 C 102.285156 282.558594 103.574219 280.511719 105.621094 278.953125 C 107.664062 277.394531 110.882812 276.617188 115.285156 276.617188 C 119.375 276.617188 122.367188 277.320312 124.265625 278.707031 C 126.160156 280.105469 127.371094 281.945312 127.90625 284.238281 C 128.433594 286.535156 128.699219 289.074219 128.699219 291.859375 L 128.699219 388.949219 C 128.699219 397.636719 127.453125 405.664062 124.949219 413.035156 C 122.449219 420.410156 118.84375 426.84375 114.148438 432.332031 C 109.449219 437.824219 103.800781 442.085938 97.207031 445.113281 C 90.613281 448.144531 83.222656 449.660156 75.039062 449.660156 Z M 47.808594 65.585938 C 44.851562 68.328125 42.015625 71.203125 39.289062 74.144531 C 30.898438 83.179688 23.339844 93.105469 17.054688 103.722656 C 10.28125 115.167969 4.847656 127.664062 2.074219 140.707031 C -0.839844 154.449219 -0.832031 168.78125 3.078125 182.332031 C 6.785156 195.175781 13.324219 207.578125 23.402344 216.554688 C 32.070312 224.277344 42.765625 229.273438 54.082031 231.675781 C 65.199219 234.035156 76.640625 234.246094 87.929688 233.304688 C 100.996094 232.21875 113.976562 229.914062 126.734375 226.914062 C 140 223.792969 153.101562 219.878906 165.871094 215.109375 C 177.710938 210.683594 189.445312 205.609375 200.292969 199.082031 C 202.496094 197.757812 204.660156 196.363281 206.761719 194.890625 C 207.089844 194.660156 207.394531 194.417969 207.671875 194.15625 C 211.554688 191.570312 215.0625 188.320312 218.507812 185.21875 C 222.90625 181.261719 227.195312 177.183594 231.738281 173.394531 C 232.832031 172.484375 233.9375 171.597656 235.058594 170.726562 C 234.707031 171 234.351562 171.273438 233.996094 171.546875 C 238.242188 168.28125 242.765625 165.363281 247.703125 163.257812 C 247.289062 163.433594 246.871094 163.609375 246.449219 163.785156 C 247.714844 163.253906 249 162.777344 250.304688 162.359375 C 253.699219 164.242188 257.035156 166.234375 260.3125 168.316406 C 264.125 170.742188 267.863281 173.292969 271.523438 175.941406 C 273.382812 177.285156 275.222656 178.652344 277.050781 180.046875 C 277.234375 180.1875 277.421875 180.332031 277.609375 180.472656 C 277.683594 180.53125 278.609375 181.246094 277.917969 180.710938 C 277.226562 180.171875 278.152344 180.890625 278.222656 180.949219 C 278.410156 181.09375 278.59375 181.238281 278.78125 181.382812 C 279.707031 182.109375 280.632812 182.84375 281.550781 183.578125 C 288.539062 189.179688 295.316406 195.050781 301.898438 201.117188 C 308.136719 206.867188 314.167969 212.839844 319.855469 219.136719 C 322.683594 222.261719 325.421875 225.46875 328.046875 228.761719 C 328.355469 229.148438 328.660156 229.53125 328.964844 229.917969 C 329.132812 230.132812 329.296875 230.347656 329.464844 230.5625 C 329.925781 231.148438 328.664062 229.511719 329.34375 230.40625 C 330.003906 231.269531 330.660156 232.136719 331.304688 233.011719 C 332.523438 234.664062 333.71875 236.347656 334.875 238.046875 C 339.535156 244.902344 343.589844 252.132812 346.882812 259.746094 C 347.175781 260.425781 346.363281 258.492188 346.785156 259.515625 C 346.867188 259.707031 346.945312 259.90625 347.027344 260.101562 C 347.226562 260.589844 347.421875 261.082031 347.613281 261.570312 C 348 262.554688 348.367188 263.542969 348.722656 264.539062 C 349.09375 265.585938 349.449219 266.636719 349.785156 267.699219 C 349.511719 267.359375 349.238281 267.019531 348.960938 266.683594 C 342.820312 259.226562 335.292969 252.871094 326.980469 247.957031 C 318.425781 242.898438 308.980469 239.433594 299.253906 237.472656 C 289.105469 235.429688 278.738281 234.742188 268.417969 234.320312 C 258.402344 233.914062 248.359375 233.734375 238.382812 232.648438 C 237.15625 232.515625 235.929688 232.363281 234.707031 232.203125 L 236.101562 232.386719 C 234.902344 232.226562 233.703125 232.046875 232.507812 231.855469 C 232.375 229.796875 232.085938 227.871094 231.640625 226.066406 C 231.003906 223.488281 229.652344 221.425781 227.585938 219.878906 C 225.519531 218.335938 222.101562 217.5625 217.335938 217.5625 C 212.566406 217.5625 209.109375 218.296875 206.964844 219.753906 C 204.816406 221.214844 203.421875 223.191406 202.789062 225.679688 C 202.152344 228.175781 201.835938 230.964844 201.835938 234.058594 C 201.835938 237.152344 202.109375 239.988281 202.671875 242.566406 C 203.226562 245.144531 204.578125 247.207031 206.722656 248.75 C 208.871094 250.296875 212.328125 251.070312 217.097656 251.070312 C 222.019531 251.070312 225.519531 250.34375 227.585938 248.878906 C 229.648438 247.421875 231.003906 245.445312 231.640625 242.953125 C 231.691406 242.746094 231.746094 242.535156 231.792969 242.324219 C 236.648438 243.046875 241.539062 243.515625 246.421875 243.847656 C 255.710938 244.476562 265.027344 244.59375 274.324219 245.097656 C 279.554688 245.378906 284.78125 245.785156 289.976562 246.480469 C 289.511719 246.417969 289.046875 246.355469 288.582031 246.292969 C 297.015625 247.429688 305.339844 249.359375 313.207031 252.660156 C 312.789062 252.484375 312.375 252.304688 311.953125 252.128906 C 318.355469 254.835938 324.386719 258.351562 329.894531 262.59375 C 329.542969 262.320312 329.1875 262.046875 328.832031 261.773438 C 334.265625 265.984375 339.082031 270.878906 343.289062 276.308594 C 343.015625 275.953125 342.742188 275.597656 342.472656 275.242188 C 343.035156 275.976562 343.589844 276.71875 344.136719 277.464844 C 344.015625 277.804688 343.90625 278.152344 343.816406 278.507812 C 343.179688 281 342.863281 283.792969 342.863281 286.886719 C 342.863281 289.980469 343.136719 292.816406 343.699219 295.394531 C 344.253906 297.96875 345.605469 300.03125 347.753906 301.578125 C 349.863281 303.101562 353.246094 303.875 357.902344 303.898438 L 358.125 303.898438 C 363.046875 303.898438 366.546875 303.167969 368.613281 301.707031 C 370.675781 300.246094 372.03125 298.269531 372.667969 295.777344 C 373.300781 293.289062 373.621094 290.492188 373.621094 287.398438 C 373.621094 284.304688 373.304688 281.46875 372.667969 278.894531 C 372.03125 276.316406 370.679688 274.253906 368.613281 272.710938 C 367.019531 271.515625 364.625 270.785156 361.425781 270.511719 C 358.523438 259.113281 353.667969 248.246094 347.453125 238.171875 C 338.285156 223.308594 326.542969 210.105469 313.964844 198.054688 C 300.582031 185.234375 286.257812 173.132812 270.90625 162.722656 C 269.011719 161.441406 267.101562 160.1875 265.164062 158.964844 C 266.152344 157.289062 267.195312 155.652344 268.304688 154.058594 C 268.914062 153.183594 269.542969 152.328125 270.195312 151.484375 C 269.921875 151.839844 269.648438 152.191406 269.375 152.546875 C 272.378906 148.660156 275.832031 145.128906 279.71875 142.117188 C 279.363281 142.386719 279.011719 142.664062 278.65625 142.9375 C 282.328125 140.097656 286.355469 137.753906 290.632812 135.945312 C 290.214844 136.121094 289.796875 136.300781 289.378906 136.476562 C 294.242188 134.433594 299.371094 133.113281 304.589844 132.40625 L 303.195312 132.59375 C 310.386719 131.636719 317.683594 131.84375 324.863281 132.792969 L 323.46875 132.605469 C 331.683594 133.710938 339.792969 135.71875 347.789062 137.875 C 356.34375 140.179688 364.828125 142.78125 373.1875 145.726562 C 377.484375 147.238281 381.75 148.847656 385.945312 150.613281 C 385.527344 150.4375 385.109375 150.261719 384.695312 150.085938 C 389.132812 151.964844 393.78125 153.933594 397.710938 156.789062 C 397.476562 158.164062 397.230469 159.539062 396.96875 160.914062 C 395.816406 166.980469 394.328125 172.890625 392.175781 178.675781 C 391.859375 179.523438 392.707031 177.496094 392.199219 178.621094 C 392.066406 178.921875 391.933594 179.222656 391.792969 179.523438 C 391.523438 180.105469 391.238281 180.683594 390.9375 181.25 C 390.367188 182.328125 389.742188 183.382812 389.046875 184.386719 C 388.90625 184.59375 388.75 184.792969 388.609375 185 C 388.15625 185.675781 389.441406 184.007812 388.75 184.820312 C 388.355469 185.28125 387.96875 185.746094 387.546875 186.183594 C 387.191406 186.554688 386.820312 186.914062 386.4375 187.257812 C 386.230469 187.4375 386.015625 187.605469 385.8125 187.789062 C 385.242188 188.296875 386.894531 187.035156 386.039062 187.609375 C 385.117188 188.222656 384.199219 188.746094 383.21875 189.253906 C 382.300781 189.734375 384.292969 188.882812 383.492188 189.144531 C 383.261719 189.21875 383.042969 189.3125 382.816406 189.390625 C 382.238281 189.589844 381.644531 189.757812 381.050781 189.894531 C 380.574219 190.003906 379.851562 189.980469 379.429688 190.195312 C 379.46875 190.175781 380.863281 190.058594 380.046875 190.109375 C 379.914062 190.117188 379.78125 190.140625 379.648438 190.148438 C 379.289062 190.171875 378.929688 190.203125 378.570312 190.21875 C 377.265625 190.273438 375.957031 190.222656 374.660156 190.09375 C 374.476562 190.074219 373.175781 189.945312 374.121094 190.035156 C 375.015625 190.125 373.796875 189.976562 373.542969 189.933594 C 372.761719 189.796875 371.988281 189.632812 371.214844 189.457031 C 369.515625 189.058594 367.839844 188.5625 366.1875 188.003906 C 365.34375 187.71875 364.511719 187.414062 363.679688 187.097656 C 363.210938 186.917969 362.746094 186.734375 362.28125 186.546875 C 362.078125 186.46875 361.875 186.378906 361.671875 186.300781 C 361.105469 186.078125 362.398438 186.621094 361.480469 186.214844 C 359.410156 185.300781 357.363281 184.339844 355.34375 183.308594 C 355.082031 183.175781 354.820312 183.042969 354.558594 182.90625 C 354.5625 182.746094 354.5625 182.585938 354.5625 182.425781 C 354.5625 179.332031 354.242188 176.496094 353.609375 173.921875 C 352.96875 171.34375 351.621094 169.28125 349.554688 167.734375 C 347.484375 166.1875 344.070312 165.414062 339.300781 165.414062 C 334.53125 165.414062 331.074219 166.148438 328.929688 167.605469 C 326.785156 169.066406 325.390625 171.042969 324.757812 173.535156 C 324.121094 176.027344 323.804688 178.816406 323.804688 181.910156 C 323.804688 185.003906 324.078125 187.839844 324.640625 190.414062 C 325.195312 192.992188 326.546875 195.054688 328.695312 196.601562 C 330.839844 198.144531 334.296875 198.921875 339.066406 198.921875 C 343.992188 198.921875 347.488281 198.191406 349.554688 196.730469 C 350.773438 195.871094 351.742188 194.828125 352.46875 193.609375 C 356.023438 195.328125 359.664062 196.867188 363.402344 198.132812 C 369.78125 200.296875 376.671875 201.496094 383.351562 200.128906 C 395.265625 197.691406 401.203125 186.21875 404.335938 175.535156 C 406.285156 168.882812 407.46875 162.019531 408.554688 155.183594 C 410.117188 145.34375 411.492188 135.488281 411.605469 125.511719 C 411.851562 103.824219 406.75 81.621094 393.402344 64.148438 C 380.34375 47.046875 361.679688 35.417969 342.226562 26.828125 C 327.585938 20.367188 312.355469 15.167969 296.917969 10.96875 C 281.777344 6.851562 266.351562 3.863281 250.769531 2.039062 C 233.113281 -0.0273438 215.253906 -0.433594 197.535156 1.042969 C 177.273438 2.726562 157.210938 6.730469 137.921875 13.175781 C 115.96875 20.511719 95.035156 30.8125 75.671875 43.472656 C 74.292969 44.375 72.925781 45.289062 71.5625 46.214844 C 69.507812 45.347656 66.699219 44.914062 63.128906 44.914062 C 58.359375 44.914062 54.902344 45.648438 52.757812 47.105469 C 50.609375 48.566406 49.21875 50.542969 48.585938 53.035156 C 47.949219 55.527344 47.632812 58.316406 47.632812 61.410156 C 47.632812 62.863281 47.691406 64.257812 47.8125 65.59375 Z M 165.390625 204.113281 C 155.195312 208.035156 144.769531 211.359375 134.226562 214.199219 C 127.828125 215.917969 121.382812 217.453125 114.894531 218.78125 C 111.71875 219.429688 108.53125 220.03125 105.335938 220.570312 C 103.800781 220.828125 102.269531 221.074219 100.734375 221.304688 C 99.980469 221.421875 99.222656 221.53125 98.464844 221.636719 C 98.113281 221.6875 97.761719 221.738281 97.40625 221.785156 C 97.050781 221.835938 96.398438 221.914062 98.007812 221.707031 C 97.746094 221.738281 97.484375 221.777344 97.222656 221.808594 C 86.355469 223.21875 75.3125 223.917969 64.394531 222.761719 C 63.730469 222.691406 63.066406 222.613281 62.402344 222.53125 C 62.332031 222.519531 61.953125 222.496094 61.9375 222.472656 C 61.929688 222.457031 63.421875 222.679688 62.632812 222.5625 C 62.246094 222.503906 61.859375 222.449219 61.472656 222.390625 C 60.160156 222.1875 58.855469 221.957031 57.554688 221.691406 C 54.976562 221.167969 52.417969 220.519531 49.910156 219.722656 C 48.660156 219.332031 47.425781 218.898438 46.203125 218.429688 C 45.628906 218.210938 45.058594 217.972656 44.488281 217.746094 C 46.253906 218.445312 44.960938 217.945312 44.578125 217.773438 C 44.261719 217.632812 43.945312 217.492188 43.632812 217.347656 C 41.214844 216.230469 38.867188 214.953125 36.625 213.511719 C 35.507812 212.792969 34.414062 212.039062 33.351562 211.242188 C 33.226562 211.148438 33.101562 211.050781 32.976562 210.957031 C 32.484375 210.59375 33.953125 211.730469 33.476562 211.34375 C 33.199219 211.121094 32.917969 210.902344 32.640625 210.679688 C 32.117188 210.25 31.597656 209.816406 31.089844 209.367188 C 28.96875 207.503906 26.996094 205.476562 25.1875 203.3125 C 24.75 202.792969 24.339844 202.257812 23.910156 201.734375 C 24.996094 203.054688 24.203125 202.113281 23.953125 201.777344 C 23.695312 201.429688 23.4375 201.078125 23.191406 200.730469 C 22.316406 199.503906 21.488281 198.246094 20.707031 196.964844 C 19.042969 194.230469 17.585938 191.375 16.308594 188.441406 C 16.230469 188.261719 16.160156 188.074219 16.078125 187.898438 C 16.703125 189.242188 16.34375 188.53125 16.203125 188.1875 C 16.050781 187.816406 15.898438 187.441406 15.753906 187.070312 C 15.417969 186.210938 15.097656 185.347656 14.789062 184.480469 C 14.191406 182.804688 13.644531 181.105469 13.15625 179.398438 C 12.222656 176.140625 11.539062 172.832031 11.03125 169.484375 C 10.980469 169.136719 10.929688 168.476562 11.101562 170.015625 C 11.082031 169.824219 11.054688 169.632812 11.03125 169.445312 C 10.984375 169.0625 10.9375 168.679688 10.898438 168.296875 C 10.804688 167.441406 10.726562 166.582031 10.660156 165.722656 C 10.542969 164.109375 10.476562 162.492188 10.453125 160.875 C 10.417969 157.667969 10.574219 154.457031 10.914062 151.269531 C 10.953125 150.894531 11 150.523438 11.042969 150.148438 C 11.066406 149.960938 11.089844 149.773438 11.113281 149.589844 C 11.214844 148.730469 11.039062 150.109375 11.035156 150.144531 C 11.132812 149.308594 11.273438 148.472656 11.410156 147.640625 C 11.667969 146.070312 11.96875 144.503906 12.3125 142.945312 C 13.003906 139.789062 13.851562 136.664062 14.839844 133.585938 C 15.828125 130.511719 16.957031 127.488281 18.195312 124.507812 C 18.324219 124.195312 18.605469 123.621094 17.992188 124.984375 C 18.070312 124.816406 18.140625 124.640625 18.210938 124.46875 C 18.359375 124.128906 18.511719 123.785156 18.660156 123.441406 C 19 122.675781 19.347656 121.910156 19.699219 121.148438 C 20.367188 119.714844 21.0625 118.296875 21.78125 116.890625 C 24.625 111.308594 27.851562 105.921875 31.375 100.746094 C 33.0625 98.261719 34.816406 95.828125 36.636719 93.4375 C 36.871094 93.128906 37.808594 91.949219 36.6875 93.367188 C 36.898438 93.097656 37.109375 92.824219 37.324219 92.554688 C 37.796875 91.949219 38.277344 91.347656 38.757812 90.75 C 39.65625 89.640625 40.5625 88.535156 41.484375 87.449219 C 44.882812 83.441406 48.453125 79.546875 52.21875 75.863281 C 52.316406 75.9375 52.414062 76.011719 52.515625 76.082031 C 54.660156 77.628906 58.117188 78.402344 62.886719 78.402344 C 67.8125 78.402344 71.308594 77.675781 73.378906 76.210938 C 75.441406 74.753906 76.792969 72.777344 77.433594 70.285156 C 78.0625 67.796875 78.386719 65 78.386719 61.90625 C 78.386719 59.320312 78.164062 56.910156 77.71875 54.683594 C 83.65625 50.683594 89.738281 46.902344 95.964844 43.363281 C 105.351562 38.027344 115.839844 32.867188 125.25 29.019531 C 143.925781 21.390625 163.5 16.015625 183.464844 13.105469 C 184.054688 13.019531 184.640625 12.9375 185.226562 12.851562 C 186.234375 12.714844 184.839844 12.898438 185.84375 12.769531 C 187.09375 12.609375 188.34375 12.453125 189.597656 12.308594 C 191.828125 12.050781 194.0625 11.824219 196.296875 11.628906 C 200.839844 11.230469 205.394531 10.953125 209.949219 10.792969 C 218.597656 10.496094 227.261719 10.632812 235.902344 11.179688 C 240.066406 11.441406 244.222656 11.800781 248.367188 12.25 C 250.320312 12.464844 252.269531 12.695312 254.214844 12.945312 C 254.5 12.984375 254.785156 13.023438 255.070312 13.058594 C 255.019531 13.050781 254.125 12.929688 254.738281 13.015625 C 255.234375 13.082031 255.734375 13.148438 256.226562 13.222656 C 257.214844 13.363281 258.195312 13.503906 259.179688 13.65625 C 266.707031 14.796875 274.191406 16.234375 281.609375 17.9375 C 294.265625 20.84375 306.742188 24.53125 318.988281 28.859375 C 323.960938 30.613281 328.886719 32.492188 333.757812 34.515625 C 333.71875 34.5 334.574219 34.855469 334.175781 34.6875 C 333.777344 34.519531 334.628906 34.882812 334.589844 34.867188 C 335.199219 35.128906 335.800781 35.386719 336.40625 35.652344 C 337.609375 36.183594 338.8125 36.722656 340.007812 37.269531 C 342.390625 38.367188 344.753906 39.507812 347.089844 40.703125 C 349.679688 42.023438 352.238281 43.410156 354.757812 44.867188 C 345.523438 50.328125 336.101562 55.464844 326.375 59.988281 C 325.089844 60.585938 323.792969 61.171875 322.496094 61.75 C 321.8125 62.050781 321.121094 62.351562 320.433594 62.652344 C 320.125 62.785156 319.820312 62.914062 319.515625 63.046875 C 318 63.695312 320.445312 62.664062 318.925781 63.292969 C 316.164062 64.4375 313.378906 65.539062 310.570312 66.566406 C 304.84375 68.664062 299.027344 70.476562 293.125 71.996094 C 290.121094 72.769531 287.101562 73.480469 284.0625 74.09375 C 283.164062 74.273438 282.261719 74.445312 281.359375 74.605469 C 281.203125 73.046875 280.949219 71.5625 280.601562 70.152344 C 279.964844 67.574219 278.613281 65.515625 276.546875 63.96875 C 274.480469 62.421875 271.0625 61.648438 266.296875 61.648438 C 261.527344 61.648438 258.070312 62.382812 255.925781 63.839844 C 253.777344 65.300781 252.382812 67.277344 251.75 69.769531 C 251.378906 71.230469 251.113281 72.792969 250.960938 74.464844 C 249.316406 74.140625 247.679688 73.78125 246.050781 73.386719 C 239.914062 71.90625 233.890625 69.964844 227.851562 68.125 C 218.097656 65.15625 208.34375 62.074219 198.410156 59.746094 C 190.6875 57.9375 182.71875 56.601562 174.765625 56.761719 C 167.125 56.914062 159.183594 58.292969 152.105469 61.230469 C 143.410156 64.84375 135.757812 70.308594 128.476562 76.21875 C 115.558594 86.707031 104.101562 98.808594 92.535156 110.746094 C 90.964844 110.445312 89.136719 110.300781 87.046875 110.300781 C 82.277344 110.300781 78.820312 111.03125 76.675781 112.492188 C 74.527344 113.953125 73.136719 115.929688 72.503906 118.417969 C 71.867188 120.910156 71.550781 123.703125 71.550781 126.796875 C 71.550781 129.890625 71.824219 132.726562 72.382812 135.300781 C 72.941406 137.878906 74.292969 139.941406 76.4375 141.484375 C 78.585938 143.03125 82.039062 143.804688 86.808594 143.804688 C 91.734375 143.804688 95.234375 143.074219 97.300781 141.613281 C 99.363281 140.15625 100.71875 138.175781 101.355469 135.683594 C 101.988281 133.195312 102.308594 130.402344 102.308594 127.308594 C 102.308594 124.214844 101.992188 121.378906 101.355469 118.800781 C 101.222656 118.269531 101.066406 117.765625 100.875 117.28125 C 110.484375 107.394531 119.980469 97.394531 130.375 88.304688 C 132.191406 86.714844 134.03125 85.15625 135.902344 83.636719 C 136.792969 82.914062 137.683594 82.046875 138.664062 81.445312 C 137.539062 82.136719 139.007812 81.1875 139.289062 80.976562 C 139.796875 80.59375 140.304688 80.21875 140.816406 79.847656 C 144.316406 77.292969 147.953125 74.90625 151.789062 72.890625 C 152.609375 72.460938 153.4375 72.046875 154.277344 71.65625 C 154.679688 71.464844 155.210938 71.316406 155.578125 71.070312 C 155.507812 71.117188 154.371094 71.558594 155.1875 71.234375 C 155.472656 71.121094 155.757812 71.003906 156.042969 70.894531 C 157.773438 70.222656 159.554688 69.6875 161.347656 69.203125 C 163.128906 68.726562 164.929688 68.320312 166.746094 68 C 167.191406 67.921875 167.632812 67.847656 168.078125 67.777344 C 168.480469 67.714844 170.101562 67.59375 168.304688 67.734375 C 169.1875 67.664062 170.066406 67.527344 170.949219 67.453125 C 174.550781 67.15625 178.171875 67.191406 181.773438 67.492188 C 182.636719 67.566406 183.503906 67.652344 184.367188 67.753906 C 184.617188 67.785156 186.183594 67.976562 185.214844 67.859375 C 184.246094 67.738281 185.308594 67.875 185.457031 67.898438 C 185.71875 67.9375 185.980469 67.976562 186.242188 68.015625 C 188.25 68.328125 190.25 68.703125 192.238281 69.117188 C 201.621094 71.085938 210.8125 73.921875 219.976562 76.703125 C 230.359375 79.851562 240.660156 83.273438 251.347656 85.121094 C 251.433594 85.640625 251.53125 86.148438 251.640625 86.648438 C 252.195312 89.226562 253.546875 91.289062 255.695312 92.835938 C 257.839844 94.378906 261.296875 95.15625 266.066406 95.15625 C 270.992188 95.15625 274.492188 94.425781 276.554688 92.964844 C 278.621094 91.507812 279.972656 89.53125 280.609375 87.035156 C 280.757812 86.457031 280.886719 85.859375 281.003906 85.25 C 283.433594 84.882812 285.855469 84.4375 288.273438 83.925781 C 312.382812 78.820312 334.953125 68.464844 356.203125 56.1875 C 358.828125 54.671875 361.4375 53.121094 364.035156 51.554688 C 364.242188 51.429688 364.441406 51.285156 364.628906 51.128906 C 365.308594 51.605469 365.984375 52.085938 366.65625 52.578125 C 367.164062 52.953125 367.671875 53.328125 368.179688 53.707031 C 368.394531 53.871094 368.613281 54.035156 368.824219 54.199219 C 368.265625 53.769531 368.972656 54.316406 369.039062 54.371094 C 370.019531 55.152344 370.992188 55.945312 371.953125 56.757812 C 375.734375 59.960938 379.289062 63.441406 382.503906 67.214844 C 384.359375 69.390625 385.019531 70.246094 386.574219 72.484375 C 388.03125 74.585938 389.378906 76.757812 390.621094 78.988281 C 391.890625 81.273438 393.046875 83.621094 394.089844 86.019531 C 394.332031 86.570312 394.15625 86.160156 394.105469 86.042969 C 394.25 86.386719 394.386719 86.730469 394.527344 87.078125 C 394.734375 87.59375 394.933594 88.113281 395.128906 88.632812 C 395.621094 89.933594 396.074219 91.242188 396.5 92.566406 C 398.09375 97.496094 399.25 102.566406 400.023438 107.6875 C 400.066406 107.960938 400.105469 108.238281 400.144531 108.511719 C 400.144531 108.503906 400.269531 109.410156 400.203125 108.917969 C 400.128906 108.359375 400.273438 109.492188 400.285156 109.597656 C 400.320312 109.875 400.351562 110.152344 400.382812 110.429688 C 400.527344 111.722656 400.652344 113.019531 400.753906 114.316406 C 400.953125 116.917969 401.070312 119.523438 401.105469 122.132812 C 401.175781 127.359375 400.9375 132.589844 400.433594 137.789062 C 400.316406 138.996094 400.1875 140.199219 400.042969 141.398438 C 399.964844 142.046875 399.882812 142.691406 399.796875 143.335938 C 399.8125 143.214844 399.886719 142.703125 399.796875 143.320312 C 399.734375 143.78125 399.667969 144.242188 399.597656 144.699219 L 399.472656 145.554688 C 397.3125 144.328125 395.066406 143.253906 392.78125 142.230469 C 386.859375 139.578125 380.792969 137.265625 374.664062 135.140625 C 368.238281 132.910156 361.742188 130.882812 355.199219 129.023438 C 349.097656 127.292969 342.949219 125.699219 336.746094 124.363281 C 329.632812 122.832031 322.398438 121.691406 315.117188 121.496094 C 308.433594 121.3125 301.660156 121.9375 295.160156 123.527344 C 289.773438 124.84375 284.503906 126.921875 279.679688 129.65625 C 275.511719 132.019531 271.621094 134.957031 268.140625 138.25 C 265.125 141.105469 262.464844 144.308594 260.019531 147.664062 C 258.632812 149.574219 257.34375 151.554688 256.140625 153.585938 C 244.734375 147.207031 232.648438 142.027344 220 138.746094 C 204.34375 134.679688 187.734375 133.40625 171.738281 136.09375 C 171.695312 135.914062 171.652344 135.734375 171.609375 135.554688 C 170.972656 132.976562 169.621094 130.914062 167.554688 129.367188 C 165.488281 127.824219 162.070312 127.046875 157.304688 127.046875 C 152.535156 127.046875 149.078125 127.78125 146.933594 129.238281 C 144.785156 130.703125 143.394531 132.679688 142.761719 135.167969 C 142.125 137.660156 141.808594 140.449219 141.808594 143.546875 C 141.808594 146.640625 142.082031 149.472656 142.640625 152.050781 C 143.195312 154.628906 144.550781 156.6875 146.695312 158.234375 C 148.84375 159.78125 152.296875 160.554688 157.066406 160.554688 C 161.992188 160.554688 165.488281 159.828125 167.558594 158.363281 C 169.621094 156.90625 170.976562 154.929688 171.613281 152.4375 C 172.066406 150.644531 172.363281 148.699219 172.492188 146.59375 C 173.351562 146.433594 174.210938 146.285156 175.074219 146.152344 C 175.414062 146.101562 176.519531 145.765625 176.828125 145.894531 C 176.449219 145.738281 175.792969 146.027344 176.488281 145.945312 C 176.839844 145.902344 177.191406 145.859375 177.542969 145.816406 C 179.894531 145.546875 182.253906 145.359375 184.617188 145.257812 C 189.125 145.066406 193.648438 145.167969 198.144531 145.539062 C 199.273438 145.632812 200.398438 145.746094 201.523438 145.871094 C 202.058594 145.929688 202.589844 145.996094 203.125 146.0625 C 203.25 146.078125 204.382812 146.308594 203.488281 146.109375 C 202.589844 145.910156 204.042969 146.191406 204.210938 146.214844 C 206.457031 146.546875 208.695312 146.949219 210.917969 147.40625 C 215.488281 148.34375 220.007812 149.542969 224.449219 150.96875 C 226.609375 151.664062 228.753906 152.414062 230.875 153.214844 C 231.875 153.59375 232.875 153.988281 233.867188 154.390625 C 234.410156 154.613281 234.949219 154.851562 235.496094 155.0625 C 234.085938 154.515625 235.808594 155.199219 236.183594 155.363281 C 236.851562 155.652344 237.515625 155.949219 238.179688 156.25 C 228.507812 161.535156 220.300781 169.4375 212.152344 176.824219 C 209.136719 179.5625 206.085938 182.277344 202.871094 184.773438 C 203.222656 184.5 203.578125 184.226562 203.933594 183.953125 C 201.382812 185.90625 198.550781 187.449219 195.597656 188.695312 C 196.015625 188.519531 196.433594 188.34375 196.851562 188.167969 C 191.117188 190.570312 184.984375 191.917969 178.839844 192.746094 C 179.304688 192.683594 179.769531 192.621094 180.234375 192.558594 C 169.460938 193.992188 158.5 193.855469 147.6875 192.917969 C 144.519531 192.644531 141.363281 192.289062 138.210938 191.867188 L 139.605469 192.054688 C 130.609375 190.84375 121.625 189.117188 112.875 186.621094 C 112.84375 183.710938 112.527344 181.03125 111.925781 178.585938 C 111.285156 176.007812 109.9375 173.945312 107.871094 172.402344 C 105.800781 170.855469 102.382812 170.078125 97.617188 170.078125 C 92.851562 170.078125 89.390625 170.8125 87.246094 172.269531 C 85.101562 173.734375 83.707031 175.710938 83.074219 178.199219 C 82.433594 180.691406 82.117188 183.484375 82.117188 186.578125 C 82.117188 189.671875 82.394531 192.503906 82.953125 195.082031 C 83.507812 197.660156 84.859375 199.71875 87.007812 201.265625 C 89.152344 202.8125 92.609375 203.585938 97.378906 203.585938 C 102.304688 203.585938 105.804688 202.859375 107.871094 201.394531 C 109.464844 200.269531 110.636719 198.832031 111.378906 197.085938 C 114.175781 197.855469 117 198.546875 119.839844 199.175781 C 129.984375 201.421875 140.328125 202.914062 150.695312 203.652344 C 155.578125 204 160.480469 204.175781 165.382812 204.105469 Z M 397.710938 156.777344 L 397.296875 156.457031 C 397.371094 156.515625 397.441406 156.574219 397.515625 156.628906 C 397.578125 156.679688 397.644531 156.734375 397.710938 156.78125 Z M 358.121094 448.429688 C 353.875 448.429688 350.804688 447.730469 348.914062 446.339844 C 347.015625 444.949219 345.84375 443.144531 345.390625 440.933594 C 344.9375 438.71875 344.707031 436.222656 344.707031 433.433594 L 344.707031 342.246094 C 344.707031 339.457031 344.9375 336.957031 345.390625 334.746094 C 345.84375 332.535156 347.058594 330.777344 349.027344 329.460938 C 350.996094 328.152344 354.101562 327.496094 358.347656 327.496094 C 362.59375 327.496094 365.660156 328.152344 367.554688 329.460938 C 369.453125 330.773438 370.625 332.574219 371.078125 334.867188 C 371.535156 337.167969 371.761719 339.78125 371.761719 342.734375 L 371.761719 433.679688 C 371.761719 436.464844 371.53125 438.964844 371.078125 441.175781 C 370.625 443.390625 369.449219 445.152344 367.554688 446.460938 C 365.660156 447.773438 362.515625 448.429688 358.121094 448.429688 Z M 316.511719 448.429688 C 310.902344 448.429688 305.9375 448.019531 301.621094 447.203125 C 297.300781 446.378906 293.585938 444.988281 290.480469 443.023438 C 287.371094 441.058594 284.792969 438.394531 282.75 435.035156 C 280.703125 431.679688 279.226562 427.539062 278.3125 422.621094 C 277.402344 417.707031 276.949219 411.808594 276.949219 404.925781 L 276.949219 286.695312 C 276.949219 283.746094 277.179688 281.167969 277.632812 278.953125 C 278.085938 276.742188 279.300781 274.941406 281.269531 273.546875 C 283.238281 272.15625 286.347656 271.457031 290.59375 271.457031 C 294.835938 271.457031 297.90625 272.113281 299.800781 273.421875 C 301.691406 274.738281 302.90625 276.539062 303.4375 278.832031 C 303.964844 281.125 304.234375 283.664062 304.234375 286.449219 L 304.234375 403.695312 C 304.234375 406.808594 304.421875 409.390625 304.800781 411.4375 C 305.175781 413.488281 305.863281 415.125 306.847656 416.355469 C 307.835938 417.582031 309.121094 418.441406 310.714844 418.933594 C 312.304688 419.425781 314.238281 419.671875 316.511719 419.671875 C 318.480469 419.671875 320.265625 419.917969 321.855469 420.40625 C 323.445312 420.898438 324.734375 422.128906 325.71875 424.09375 C 326.707031 426.0625 327.199219 429.257812 327.199219 433.679688 C 327.199219 438.273438 326.703125 441.628906 325.71875 443.757812 C 324.734375 445.890625 323.410156 447.199219 321.742188 447.691406 C 320.070312 448.183594 318.332031 448.429688 316.511719 448.429688 Z M 178.71875 379.359375 L 225.335938 379.359375 C 227.910156 379.359375 229.84375 378.910156 231.132812 378.007812 C 232.417969 377.113281 233.066406 375.183594 233.066406 372.234375 C 233.066406 368.464844 232.003906 365.105469 229.882812 362.15625 C 227.761719 359.207031 224.878906 356.832031 221.242188 355.027344 C 217.605469 353.226562 213.433594 352.324219 208.734375 352.324219 C 203.125 352.324219 198.046875 353.550781 193.5 356.011719 C 188.953125 358.46875 185.351562 361.746094 182.699219 365.84375 C 180.046875 369.941406 178.71875 374.445312 178.71875 379.359375 Z M 209.191406 450.148438 C 199.332031 450.148438 190.695312 448.386719 183.265625 444.863281 C 175.839844 441.34375 169.699219 436.589844 164.847656 430.609375 C 159.996094 424.628906 156.324219 417.910156 153.820312 410.453125 C 151.320312 403 150.070312 395.253906 150.070312 387.226562 C 150.070312 375.429688 152.570312 364.941406 157.574219 355.765625 C 162.578125 346.589844 169.511719 339.382812 178.378906 334.132812 C 187.246094 328.894531 197.4375 326.269531 208.960938 326.269531 C 217.148438 326.269531 224.347656 327.660156 230.5625 330.445312 C 236.777344 333.234375 241.964844 336.882812 246.136719 341.386719 C 250.304688 345.894531 253.488281 350.851562 255.6875 356.257812 C 257.882812 361.664062 258.984375 366.910156 258.984375 371.988281 C 258.984375 380.675781 257.050781 386.984375 253.183594 390.914062 C 249.320312 394.847656 244.507812 396.8125 238.746094 396.8125 L 178.71875 396.8125 C 178.867188 402.386719 180.5 407.21875 183.605469 411.316406 C 186.710938 415.414062 190.65625 418.566406 195.429688 420.777344 C 200.203125 422.992188 205.09375 424.097656 210.097656 424.097656 C 213.882812 424.097656 217.21875 423.851562 220.101562 423.359375 C 222.980469 422.867188 225.480469 422.253906 227.605469 421.515625 C 229.726562 420.777344 231.621094 420.003906 233.292969 419.179688 C 234.957031 418.363281 236.4375 417.621094 237.726562 416.964844 C 239.011719 416.3125 240.261719 415.902344 241.476562 415.738281 C 243.296875 415.574219 245.035156 415.984375 246.707031 416.964844 C 248.375 417.949219 249.738281 419.671875 250.800781 422.128906 C 251.710938 423.765625 252.351562 425.285156 252.734375 426.671875 C 253.109375 428.070312 253.300781 429.421875 253.300781 430.730469 C 253.300781 434.011719 251.480469 437.121094 247.84375 440.070312 C 244.207031 443.019531 239.089844 445.4375 232.496094 447.320312 C 225.902344 449.199219 218.132812 450.148438 209.191406 450.148438 Z M 209.191406 450.148438 " clip-rule="nonzero"/></clipPath><radialGradient gradientTransform="matrix(0.805298, 0.605834, -0.208084, 0.970197, 17.891056, -251.677198)" gradientUnits="userSpaceOnUse" r="2758.062976" cx="148.515993" id="4766965b02" cy="324.580601" fx="148.515993" fy="324.580601"><stop stop-opacity="1" stop-color="rgb(99.977112%, 51.701355%, 13.00354%)" offset="0"/><stop stop-opacity="1" stop-color="rgb(99.932861%, 51.507568%, 13.21106%)" offset="0.00390625"/><stop stop-opacity="1" stop-color="rgb(99.888611%, 51.313782%, 13.418579%)" offset="0.0078125"/><stop stop-opacity="1" stop-color="rgb(99.84436%, 51.119995%, 13.626099%)" offset="0.0117188"/><stop stop-opacity="1" stop-color="rgb(99.80011%, 50.926208%, 13.835144%)" offset="0.015625"/><stop stop-opacity="1" stop-color="rgb(99.755859%, 50.730896%, 14.042664%)" offset="0.0195312"/><stop stop-opacity="1" stop-color="rgb(99.711609%, 50.537109%, 14.250183%)" offset="0.0234375"/><stop stop-opacity="1" stop-color="rgb(99.667358%, 50.343323%, 14.457703%)" offset="0.0273438"/><stop stop-opacity="1" stop-color="rgb(99.623108%, 50.149536%, 14.665222%)" offset="0.03125"/><stop stop-opacity="1" stop-color="rgb(99.578857%, 49.95575%, 14.874268%)" offset="0.0351562"/><stop stop-opacity="1" stop-color="rgb(99.534607%, 49.761963%, 15.081787%)" offset="0.0390625"/><stop stop-opacity="1" stop-color="rgb(99.490356%, 49.568176%, 15.289307%)" offset="0.0429688"/><stop stop-opacity="1" stop-color="rgb(99.446106%, 49.372864%, 15.496826%)" offset="0.046875"/><stop stop-opacity="1" stop-color="rgb(99.401855%, 49.179077%, 15.705872%)" offset="0.0507812"/><stop stop-opacity="1" stop-color="rgb(99.357605%, 48.985291%, 15.913391%)" offset="0.0546875"/><stop stop-opacity="1" stop-color="rgb(99.313354%, 48.791504%, 16.120911%)" offset="0.0585938"/><stop stop-opacity="1" stop-color="rgb(99.269104%, 48.597717%, 16.32843%)" offset="0.0625"/><stop stop-opacity="1" stop-color="rgb(99.224854%, 48.403931%, 16.537476%)" offset="0.0664062"/><stop stop-opacity="1" stop-color="rgb(99.180603%, 48.208618%, 16.744995%)" offset="0.0703125"/><stop stop-opacity="1" stop-color="rgb(99.137878%, 48.014832%, 16.952515%)" offset="0.0742188"/><stop stop-opacity="1" stop-color="rgb(99.093628%, 47.821045%, 17.160034%)" offset="0.078125"/><stop stop-opacity="1" stop-color="rgb(99.049377%, 47.627258%, 17.367554%)" offset="0.0820312"/><stop stop-opacity="1" stop-color="rgb(99.005127%, 47.433472%, 17.576599%)" offset="0.0859375"/><stop stop-opacity="1" stop-color="rgb(98.960876%, 47.239685%, 17.784119%)" offset="0.0898438"/><stop stop-opacity="1" stop-color="rgb(98.916626%, 47.045898%, 17.991638%)" offset="0.09375"/><stop stop-opacity="1" stop-color="rgb(98.872375%, 46.850586%, 18.199158%)" offset="0.0976562"/><stop stop-opacity="1" stop-color="rgb(98.828125%, 46.656799%, 18.408203%)" offset="0.101562"/><stop stop-opacity="1" stop-color="rgb(98.783875%, 46.463013%, 18.615723%)" offset="0.105469"/><stop stop-opacity="1" stop-color="rgb(98.739624%, 46.269226%, 18.823242%)" offset="0.109375"/><stop stop-opacity="1" stop-color="rgb(98.695374%, 46.075439%, 19.030762%)" offset="0.113281"/><stop stop-opacity="1" stop-color="rgb(98.651123%, 45.881653%, 19.239807%)" offset="0.117188"/><stop stop-opacity="1" stop-color="rgb(98.606873%, 45.687866%, 19.447327%)" offset="0.121094"/><stop stop-opacity="1" stop-color="rgb(98.562622%, 45.492554%, 19.654846%)" offset="0.125"/><stop stop-opacity="1" stop-color="rgb(98.518372%, 45.298767%, 19.862366%)" offset="0.128906"/><stop stop-opacity="1" stop-color="rgb(98.474121%, 45.10498%, 20.069885%)" offset="0.132812"/><stop stop-opacity="1" stop-color="rgb(98.429871%, 44.911194%, 20.278931%)" offset="0.136719"/><stop stop-opacity="1" stop-color="rgb(98.38562%, 44.717407%, 20.48645%)" offset="0.140625"/><stop stop-opacity="1" stop-color="rgb(98.34137%, 44.523621%, 20.69397%)" offset="0.144531"/><stop stop-opacity="1" stop-color="rgb(98.297119%, 44.329834%, 20.901489%)" offset="0.148438"/><stop stop-opacity="1" stop-color="rgb(98.254395%, 44.134521%, 21.110535%)" offset="0.152344"/><stop stop-opacity="1" stop-color="rgb(98.210144%, 43.940735%, 21.318054%)" offset="0.15625"/><stop stop-opacity="1" stop-color="rgb(98.165894%, 43.746948%, 21.525574%)" offset="0.160156"/><stop stop-opacity="1" stop-color="rgb(98.121643%, 43.553162%, 21.733093%)" offset="0.164062"/><stop stop-opacity="1" stop-color="rgb(98.077393%, 43.359375%, 21.942139%)" offset="0.167969"/><stop stop-opacity="1" stop-color="rgb(98.033142%, 43.165588%, 22.149658%)" offset="0.171875"/><stop stop-opacity="1" stop-color="rgb(97.988892%, 42.970276%, 22.357178%)" offset="0.175781"/><stop stop-opacity="1" stop-color="rgb(97.944641%, 42.776489%, 22.564697%)" offset="0.179688"/><stop stop-opacity="1" stop-color="rgb(97.900391%, 42.582703%, 22.772217%)" offset="0.183594"/><stop stop-opacity="1" stop-color="rgb(97.85614%, 42.388916%, 22.981262%)" offset="0.1875"/><stop stop-opacity="1" stop-color="rgb(97.81189%, 42.195129%, 23.188782%)" offset="0.191406"/><stop stop-opacity="1" stop-color="rgb(97.767639%, 42.001343%, 23.396301%)" offset="0.195312"/><stop stop-opacity="1" stop-color="rgb(97.723389%, 41.807556%, 23.603821%)" offset="0.199219"/><stop stop-opacity="1" stop-color="rgb(97.679138%, 41.612244%, 23.812866%)" offset="0.203125"/><stop stop-opacity="1" stop-color="rgb(97.634888%, 41.418457%, 24.020386%)" offset="0.207031"/><stop stop-opacity="1" stop-color="rgb(97.590637%, 41.22467%, 24.227905%)" offset="0.210938"/><stop stop-opacity="1" stop-color="rgb(97.546387%, 41.030884%, 24.435425%)" offset="0.214844"/><stop stop-opacity="1" stop-color="rgb(97.502136%, 40.837097%, 24.64447%)" offset="0.21875"/><stop stop-opacity="1" stop-color="rgb(97.457886%, 40.643311%, 24.85199%)" offset="0.222656"/><stop stop-opacity="1" stop-color="rgb(97.415161%, 40.449524%, 25.059509%)" offset="0.226562"/><stop stop-opacity="1" stop-color="rgb(97.370911%, 40.254211%, 25.267029%)" offset="0.230469"/><stop stop-opacity="1" stop-color="rgb(97.32666%, 40.060425%, 25.474548%)" offset="0.234375"/><stop stop-opacity="1" stop-color="rgb(97.28241%, 39.866638%, 25.683594%)" offset="0.238281"/><stop stop-opacity="1" stop-color="rgb(97.238159%, 39.672852%, 25.891113%)" offset="0.242188"/><stop stop-opacity="1" stop-color="rgb(97.193909%, 39.479065%, 26.098633%)" offset="0.246094"/><stop stop-opacity="1" stop-color="rgb(97.149658%, 39.285278%, 26.306152%)" offset="0.25"/><stop stop-opacity="1" stop-color="rgb(97.105408%, 39.089966%, 26.515198%)" offset="0.253906"/><stop stop-opacity="1" stop-color="rgb(97.061157%, 38.896179%, 26.722717%)" offset="0.257812"/><stop stop-opacity="1" stop-color="rgb(97.016907%, 38.702393%, 26.930237%)" offset="0.261719"/><stop stop-opacity="1" stop-color="rgb(96.972656%, 38.508606%, 27.137756%)" offset="0.265625"/><stop stop-opacity="1" stop-color="rgb(96.928406%, 38.314819%, 27.346802%)" offset="0.269531"/><stop stop-opacity="1" stop-color="rgb(96.884155%, 38.121033%, 27.554321%)" offset="0.273438"/><stop stop-opacity="1" stop-color="rgb(96.839905%, 37.927246%, 27.761841%)" offset="0.277344"/><stop stop-opacity="1" stop-color="rgb(96.795654%, 37.731934%, 27.96936%)" offset="0.28125"/><stop stop-opacity="1" stop-color="rgb(96.751404%, 37.538147%, 28.17688%)" offset="0.285156"/><stop stop-opacity="1" stop-color="rgb(96.707153%, 37.34436%, 28.385925%)" offset="0.289062"/><stop stop-opacity="1" stop-color="rgb(96.662903%, 37.150574%, 28.593445%)" offset="0.292969"/><stop stop-opacity="1" stop-color="rgb(96.618652%, 36.956787%, 28.800964%)" offset="0.296875"/><stop stop-opacity="1" stop-color="rgb(96.574402%, 36.763%, 29.008484%)" offset="0.300781"/><stop stop-opacity="1" stop-color="rgb(96.531677%, 36.569214%, 29.217529%)" offset="0.304688"/><stop stop-opacity="1" stop-color="rgb(96.487427%, 36.373901%, 29.425049%)" offset="0.308594"/><stop stop-opacity="1" stop-color="rgb(96.443176%, 36.180115%, 29.632568%)" offset="0.3125"/><stop stop-opacity="1" stop-color="rgb(96.398926%, 35.986328%, 29.840088%)" offset="0.316406"/><stop stop-opacity="1" stop-color="rgb(96.354675%, 35.792542%, 30.049133%)" offset="0.320312"/><stop stop-opacity="1" stop-color="rgb(96.310425%, 35.598755%, 30.256653%)" offset="0.324219"/><stop stop-opacity="1" stop-color="rgb(96.266174%, 35.404968%, 30.464172%)" offset="0.328125"/><stop stop-opacity="1" stop-color="rgb(96.221924%, 35.211182%, 30.671692%)" offset="0.332031"/><stop stop-opacity="1" stop-color="rgb(96.177673%, 35.015869%, 30.879211%)" offset="0.335938"/><stop stop-opacity="1" stop-color="rgb(96.133423%, 34.822083%, 31.088257%)" offset="0.339844"/><stop stop-opacity="1" stop-color="rgb(96.089172%, 34.628296%, 31.295776%)" offset="0.34375"/><stop stop-opacity="1" stop-color="rgb(96.044922%, 34.434509%, 31.503296%)" offset="0.347656"/><stop stop-opacity="1" stop-color="rgb(96.000671%, 34.240723%, 31.710815%)" offset="0.351562"/><stop stop-opacity="1" stop-color="rgb(95.956421%, 34.046936%, 31.919861%)" offset="0.355469"/><stop stop-opacity="1" stop-color="rgb(95.91217%, 33.851624%, 32.12738%)" offset="0.359375"/><stop stop-opacity="1" stop-color="rgb(95.86792%, 33.657837%, 32.3349%)" offset="0.363281"/><stop stop-opacity="1" stop-color="rgb(95.823669%, 33.46405%, 32.542419%)" offset="0.367188"/><stop stop-opacity="1" stop-color="rgb(95.779419%, 33.270264%, 32.751465%)" offset="0.371094"/><stop stop-opacity="1" stop-color="rgb(95.735168%, 33.076477%, 32.958984%)" offset="0.375"/><stop stop-opacity="1" stop-color="rgb(95.690918%, 32.88269%, 33.166504%)" offset="0.378906"/><stop stop-opacity="1" stop-color="rgb(95.648193%, 32.688904%, 33.374023%)" offset="0.382812"/><stop stop-opacity="1" stop-color="rgb(95.603943%, 32.493591%, 33.581543%)" offset="0.386719"/><stop stop-opacity="1" stop-color="rgb(95.559692%, 32.299805%, 33.790588%)" offset="0.390625"/><stop stop-opacity="1" stop-color="rgb(95.515442%, 32.106018%, 33.998108%)" offset="0.394531"/><stop stop-opacity="1" stop-color="rgb(95.471191%, 31.912231%, 34.205627%)" offset="0.398438"/><stop stop-opacity="1" stop-color="rgb(95.426941%, 31.718445%, 34.413147%)" offset="0.402344"/><stop stop-opacity="1" stop-color="rgb(95.38269%, 31.524658%, 34.622192%)" offset="0.40625"/><stop stop-opacity="1" stop-color="rgb(95.33844%, 31.330872%, 34.829712%)" offset="0.410156"/><stop stop-opacity="1" stop-color="rgb(95.294189%, 31.135559%, 35.037231%)" offset="0.414062"/><stop stop-opacity="1" stop-color="rgb(95.249939%, 30.941772%, 35.244751%)" offset="0.417969"/><stop stop-opacity="1" stop-color="rgb(95.205688%, 30.747986%, 35.453796%)" offset="0.421875"/><stop stop-opacity="1" stop-color="rgb(95.161438%, 30.554199%, 35.661316%)" offset="0.425781"/><stop stop-opacity="1" stop-color="rgb(95.117188%, 30.360413%, 35.868835%)" offset="0.429688"/><stop stop-opacity="1" stop-color="rgb(95.072937%, 30.166626%, 36.076355%)" offset="0.433594"/><stop stop-opacity="1" stop-color="rgb(95.028687%, 29.972839%, 36.283875%)" offset="0.4375"/><stop stop-opacity="1" stop-color="rgb(94.984436%, 29.777527%, 36.49292%)" offset="0.441406"/><stop stop-opacity="1" stop-color="rgb(94.952393%, 29.612732%, 36.604309%)" offset="0.445312"/><stop stop-opacity="1" stop-color="rgb(94.981384%, 29.679871%, 36.349487%)" offset="0.453125"/><stop stop-opacity="1" stop-color="rgb(95.06073%, 29.949951%, 35.823059%)" offset="0.457031"/><stop stop-opacity="1" stop-color="rgb(95.140076%, 30.218506%, 35.298157%)" offset="0.460938"/><stop stop-opacity="1" stop-color="rgb(95.220947%, 30.487061%, 34.771729%)" offset="0.464844"/><stop stop-opacity="1" stop-color="rgb(95.300293%, 30.757141%, 34.2453%)" offset="0.46875"/><stop stop-opacity="1" stop-color="rgb(95.379639%, 31.025696%, 33.718872%)" offset="0.472656"/><stop stop-opacity="1" stop-color="rgb(95.458984%, 31.295776%, 33.19397%)" offset="0.476562"/><stop stop-opacity="1" stop-color="rgb(95.53833%, 31.564331%, 32.667542%)" offset="0.480469"/><stop stop-opacity="1" stop-color="rgb(95.617676%, 31.834412%, 32.141113%)" offset="0.484375"/><stop stop-opacity="1" stop-color="rgb(95.697021%, 32.102966%, 31.614685%)" offset="0.488281"/><stop stop-opacity="1" stop-color="rgb(95.776367%, 32.373047%, 31.089783%)" offset="0.492188"/><stop stop-opacity="1" stop-color="rgb(95.855713%, 32.641602%, 30.563354%)" offset="0.496094"/><stop stop-opacity="1" stop-color="rgb(95.935059%, 32.910156%, 30.036926%)" offset="0.5"/><stop stop-opacity="1" stop-color="rgb(96.014404%, 33.180237%, 29.510498%)" offset="0.503906"/><stop stop-opacity="1" stop-color="rgb(96.09375%, 33.448792%, 28.985596%)" offset="0.507812"/><stop stop-opacity="1" stop-color="rgb(96.173096%, 33.718872%, 28.459167%)" offset="0.511719"/><stop stop-opacity="1" stop-color="rgb(96.252441%, 33.987427%, 27.932739%)" offset="0.515625"/><stop stop-opacity="1" stop-color="rgb(96.331787%, 34.257507%, 27.407837%)" offset="0.519531"/><stop stop-opacity="1" stop-color="rgb(96.411133%, 34.526062%, 26.881409%)" offset="0.523438"/><stop stop-opacity="1" stop-color="rgb(96.490479%, 34.796143%, 26.35498%)" offset="0.527344"/><stop stop-opacity="1" stop-color="rgb(96.569824%, 35.064697%, 25.828552%)" offset="0.53125"/><stop stop-opacity="1" stop-color="rgb(96.64917%, 35.333252%, 25.30365%)" offset="0.535156"/><stop stop-opacity="1" stop-color="rgb(96.728516%, 35.603333%, 24.777222%)" offset="0.539062"/><stop stop-opacity="1" stop-color="rgb(96.807861%, 35.871887%, 24.250793%)" offset="0.542969"/><stop stop-opacity="1" stop-color="rgb(96.887207%, 36.141968%, 23.724365%)" offset="0.546875"/><stop stop-opacity="1" stop-color="rgb(96.966553%, 36.410522%, 23.199463%)" offset="0.550781"/><stop stop-opacity="1" stop-color="rgb(97.045898%, 36.680603%, 22.673035%)" offset="0.554688"/><stop stop-opacity="1" stop-color="rgb(97.125244%, 36.949158%, 22.146606%)" offset="0.558594"/><stop stop-opacity="1" stop-color="rgb(97.20459%, 37.219238%, 21.620178%)" offset="0.5625"/><stop stop-opacity="1" stop-color="rgb(97.283936%, 37.487793%, 21.095276%)" offset="0.566406"/><stop stop-opacity="1" stop-color="rgb(97.363281%, 37.756348%, 20.568848%)" offset="0.570312"/><stop stop-opacity="1" stop-color="rgb(97.442627%, 38.026428%, 20.042419%)" offset="0.574219"/><stop stop-opacity="1" stop-color="rgb(97.521973%, 38.294983%, 19.517517%)" offset="0.578125"/><stop stop-opacity="1" stop-color="rgb(97.601318%, 38.565063%, 18.991089%)" offset="0.582031"/><stop stop-opacity="1" stop-color="rgb(97.680664%, 38.833618%, 18.464661%)" offset="0.585938"/><stop stop-opacity="1" stop-color="rgb(97.76001%, 39.103699%, 17.938232%)" offset="0.589844"/><stop stop-opacity="1" stop-color="rgb(97.839355%, 39.372253%, 17.41333%)" offset="0.59375"/><stop stop-opacity="1" stop-color="rgb(97.918701%, 39.642334%, 16.886902%)" offset="0.597656"/><stop stop-opacity="1" stop-color="rgb(97.998047%, 39.910889%, 16.360474%)" offset="0.601562"/><stop stop-opacity="1" stop-color="rgb(98.077393%, 40.179443%, 15.834045%)" offset="0.605469"/><stop stop-opacity="1" stop-color="rgb(98.156738%, 40.449524%, 15.309143%)" offset="0.609375"/><stop stop-opacity="1" stop-color="rgb(98.236084%, 40.718079%, 14.782715%)" offset="0.613281"/><stop stop-opacity="1" stop-color="rgb(98.31543%, 40.988159%, 14.256287%)" offset="0.617188"/><stop stop-opacity="1" stop-color="rgb(98.394775%, 41.256714%, 13.729858%)" offset="0.621094"/><stop stop-opacity="1" stop-color="rgb(98.474121%, 41.526794%, 13.204956%)" offset="0.625"/><stop stop-opacity="1" stop-color="rgb(98.553467%, 41.795349%, 12.678528%)" offset="0.628906"/><stop stop-opacity="1" stop-color="rgb(98.632812%, 42.06543%, 12.1521%)" offset="0.632812"/><stop stop-opacity="1" stop-color="rgb(98.712158%, 42.333984%, 11.627197%)" offset="0.636719"/><stop stop-opacity="1" stop-color="rgb(98.791504%, 42.602539%, 11.100769%)" offset="0.640625"/><stop stop-opacity="1" stop-color="rgb(98.87085%, 42.87262%, 10.574341%)" offset="0.644531"/><stop stop-opacity="1" stop-color="rgb(98.950195%, 43.141174%, 10.047913%)" offset="0.648438"/><stop stop-opacity="1" stop-color="rgb(99.029541%, 43.411255%, 9.52301%)" offset="0.652344"/><stop stop-opacity="1" stop-color="rgb(99.108887%, 43.67981%, 8.996582%)" offset="0.65625"/><stop stop-opacity="1" stop-color="rgb(99.188232%, 43.94989%, 8.470154%)" offset="0.660156"/><stop stop-opacity="1" stop-color="rgb(99.267578%, 44.218445%, 7.943726%)" offset="0.664062"/><stop stop-opacity="1" stop-color="rgb(99.346924%, 44.488525%, 7.418823%)" offset="0.667969"/><stop stop-opacity="1" stop-color="rgb(99.42627%, 44.75708%, 6.892395%)" offset="0.671875"/><stop stop-opacity="1" stop-color="rgb(99.505615%, 45.027161%, 6.365967%)" offset="0.675781"/><stop stop-opacity="1" stop-color="rgb(99.584961%, 45.295715%, 5.839539%)" offset="0.679688"/><stop stop-opacity="1" stop-color="rgb(99.664307%, 45.56427%, 5.314636%)" offset="0.683594"/><stop stop-opacity="1" stop-color="rgb(99.743652%, 45.834351%, 4.788208%)" offset="0.6875"/><stop stop-opacity="1" stop-color="rgb(99.822998%, 46.102905%, 4.26178%)" offset="0.691406"/><stop stop-opacity="1" stop-color="rgb(99.902344%, 46.372986%, 3.736877%)" offset="0.695312"/><stop stop-opacity="1" stop-color="rgb(99.967957%, 46.59729%, 3.375244%)" offset="0.699219"/><stop stop-opacity="1" stop-color="rgb(99.986267%, 46.665955%, 3.581238%)" offset="0.703125"/><stop stop-opacity="1" stop-color="rgb(99.971008%, 46.62323%, 4.193115%)" offset="0.707031"/><stop stop-opacity="1" stop-color="rgb(99.95575%, 46.582031%, 4.804993%)" offset="0.710938"/><stop stop-opacity="1" stop-color="rgb(99.938965%, 46.539307%, 5.41687%)" offset="0.714844"/><stop stop-opacity="1" stop-color="rgb(99.923706%, 46.498108%, 6.030273%)" offset="0.71875"/><stop stop-opacity="1" stop-color="rgb(99.908447%, 46.455383%, 6.642151%)" offset="0.722656"/><stop stop-opacity="1" stop-color="rgb(99.891663%, 46.414185%, 7.254028%)" offset="0.726562"/><stop stop-opacity="1" stop-color="rgb(99.876404%, 46.37146%, 7.865906%)" offset="0.730469"/><stop stop-opacity="1" stop-color="rgb(99.861145%, 46.330261%, 8.477783%)" offset="0.734375"/><stop stop-opacity="1" stop-color="rgb(99.84436%, 46.287537%, 9.089661%)" offset="0.738281"/><stop stop-opacity="1" stop-color="rgb(99.829102%, 46.246338%, 9.703064%)" offset="0.742188"/><stop stop-opacity="1" stop-color="rgb(99.813843%, 46.205139%, 10.314941%)" offset="0.746094"/><stop stop-opacity="1" stop-color="rgb(99.798584%, 46.162415%, 10.926819%)" offset="0.75"/><stop stop-opacity="1" stop-color="rgb(99.781799%, 46.121216%, 11.538696%)" offset="0.753906"/><stop stop-opacity="1" stop-color="rgb(99.766541%, 46.078491%, 12.150574%)" offset="0.757812"/><stop stop-opacity="1" stop-color="rgb(99.751282%, 46.037292%, 12.763977%)" offset="0.761719"/><stop stop-opacity="1" stop-color="rgb(99.734497%, 45.994568%, 13.375854%)" offset="0.765625"/><stop stop-opacity="1" stop-color="rgb(99.719238%, 45.953369%, 13.987732%)" offset="0.769531"/><stop stop-opacity="1" stop-color="rgb(99.703979%, 45.910645%, 14.599609%)" offset="0.773438"/><stop stop-opacity="1" stop-color="rgb(99.687195%, 45.869446%, 15.211487%)" offset="0.777344"/><stop stop-opacity="1" stop-color="rgb(99.671936%, 45.826721%, 15.823364%)" offset="0.78125"/><stop stop-opacity="1" stop-color="rgb(99.656677%, 45.785522%, 16.436768%)" offset="0.785156"/><stop stop-opacity="1" stop-color="rgb(99.639893%, 45.742798%, 17.048645%)" offset="0.789062"/><stop stop-opacity="1" stop-color="rgb(99.624634%, 45.701599%, 17.660522%)" offset="0.792969"/><stop stop-opacity="1" stop-color="rgb(99.609375%, 45.658875%, 18.2724%)" offset="0.796875"/><stop stop-opacity="1" stop-color="rgb(99.594116%, 45.617676%, 18.884277%)" offset="0.800781"/><stop stop-opacity="1" stop-color="rgb(99.577332%, 45.574951%, 19.497681%)" offset="0.804688"/><stop stop-opacity="1" stop-color="rgb(99.562073%, 45.533752%, 20.109558%)" offset="0.808594"/><stop stop-opacity="1" stop-color="rgb(99.546814%, 45.491028%, 20.721436%)" offset="0.8125"/><stop stop-opacity="1" stop-color="rgb(99.530029%, 45.449829%, 21.333313%)" offset="0.816406"/><stop stop-opacity="1" stop-color="rgb(99.514771%, 45.407104%, 21.94519%)" offset="0.820312"/><stop stop-opacity="1" stop-color="rgb(99.499512%, 45.365906%, 22.557068%)" offset="0.824219"/><stop stop-opacity="1" stop-color="rgb(99.482727%, 45.323181%, 23.170471%)" offset="0.828125"/><stop stop-opacity="1" stop-color="rgb(99.467468%, 45.281982%, 23.782349%)" offset="0.832031"/><stop stop-opacity="1" stop-color="rgb(99.452209%, 45.239258%, 24.394226%)" offset="0.835938"/><stop stop-opacity="1" stop-color="rgb(99.435425%, 45.198059%, 25.006104%)" offset="0.839844"/><stop stop-opacity="1" stop-color="rgb(99.420166%, 45.155334%, 25.617981%)" offset="0.84375"/><stop stop-opacity="1" stop-color="rgb(99.404907%, 45.114136%, 26.231384%)" offset="0.847656"/><stop stop-opacity="1" stop-color="rgb(99.388123%, 45.071411%, 26.843262%)" offset="0.851562"/><stop stop-opacity="1" stop-color="rgb(99.372864%, 45.030212%, 27.455139%)" offset="0.855469"/><stop stop-opacity="1" stop-color="rgb(99.357605%, 44.987488%, 28.067017%)" offset="0.859375"/><stop stop-opacity="1" stop-color="rgb(99.342346%, 44.946289%, 28.678894%)" offset="0.863281"/><stop stop-opacity="1" stop-color="rgb(99.325562%, 44.903564%, 29.290771%)" offset="0.867188"/><stop stop-opacity="1" stop-color="rgb(99.310303%, 44.862366%, 29.904175%)" offset="0.871094"/><stop stop-opacity="1" stop-color="rgb(99.295044%, 44.819641%, 30.516052%)" offset="0.875"/><stop stop-opacity="1" stop-color="rgb(99.278259%, 44.778442%, 31.12793%)" offset="0.878906"/><stop stop-opacity="1" stop-color="rgb(99.263%, 44.735718%, 31.739807%)" offset="0.882812"/><stop stop-opacity="1" stop-color="rgb(99.247742%, 44.694519%, 32.351685%)" offset="0.886719"/><stop stop-opacity="1" stop-color="rgb(99.230957%, 44.651794%, 32.965088%)" offset="0.890625"/><stop stop-opacity="1" stop-color="rgb(99.215698%, 44.610596%, 33.576965%)" offset="0.894531"/><stop stop-opacity="1" stop-color="rgb(99.200439%, 44.567871%, 34.188843%)" offset="0.898438"/><stop stop-opacity="1" stop-color="rgb(99.183655%, 44.526672%, 34.80072%)" offset="0.902344"/><stop stop-opacity="1" stop-color="rgb(99.168396%, 44.483948%, 35.412598%)" offset="0.90625"/><stop stop-opacity="1" stop-color="rgb(99.153137%, 44.442749%, 36.024475%)" offset="0.910156"/><stop stop-opacity="1" stop-color="rgb(99.137878%, 44.400024%, 36.637878%)" offset="0.914062"/><stop stop-opacity="1" stop-color="rgb(99.121094%, 44.358826%, 37.249756%)" offset="0.917969"/><stop stop-opacity="1" stop-color="rgb(99.105835%, 44.316101%, 37.861633%)" offset="0.921875"/><stop stop-opacity="1" stop-color="rgb(99.090576%, 44.274902%, 38.473511%)" offset="0.925781"/><stop stop-opacity="1" stop-color="rgb(99.073792%, 44.232178%, 39.085388%)" offset="0.929688"/><stop stop-opacity="1" stop-color="rgb(99.058533%, 44.190979%, 39.698792%)" offset="0.933594"/><stop stop-opacity="1" stop-color="rgb(99.043274%, 44.148254%, 40.310669%)" offset="0.9375"/><stop stop-opacity="1" stop-color="rgb(99.026489%, 44.107056%, 40.922546%)" offset="0.941406"/><stop stop-opacity="1" stop-color="rgb(99.01123%, 44.065857%, 41.534424%)" offset="0.945312"/><stop stop-opacity="1" stop-color="rgb(98.995972%, 44.023132%, 42.146301%)" offset="0.949219"/><stop stop-opacity="1" stop-color="rgb(98.979187%, 43.981934%, 42.758179%)" offset="0.953125"/><stop stop-opacity="1" stop-color="rgb(98.963928%, 43.939209%, 43.371582%)" offset="0.957031"/><stop stop-opacity="1" stop-color="rgb(98.948669%, 43.89801%, 43.983459%)" offset="0.960938"/><stop stop-opacity="1" stop-color="rgb(98.933411%, 43.855286%, 44.595337%)" offset="0.964844"/><stop stop-opacity="1" stop-color="rgb(98.916626%, 43.814087%, 45.207214%)" offset="0.96875"/><stop stop-opacity="1" stop-color="rgb(98.901367%, 43.771362%, 45.819092%)" offset="0.972656"/><stop stop-opacity="1" stop-color="rgb(98.886108%, 43.730164%, 46.432495%)" offset="0.976562"/><stop stop-opacity="1" stop-color="rgb(98.869324%, 43.687439%, 47.044373%)" offset="0.980469"/><stop stop-opacity="1" stop-color="rgb(98.854065%, 43.64624%, 47.65625%)" offset="0.984375"/><stop stop-opacity="1" stop-color="rgb(98.838806%, 43.603516%, 48.268127%)" offset="0.988281"/><stop stop-opacity="1" stop-color="rgb(98.822021%, 43.562317%, 48.880005%)" offset="0.992188"/><stop stop-opacity="1" stop-color="rgb(98.806763%, 43.519592%, 49.491882%)" offset="0.996094"/><stop stop-opacity="1" stop-color="rgb(98.799133%, 43.499756%, 49.798584%)" offset="1"/></radialGradient></defs><path fill="#373435" d="M 484.472656 402.195312 C 481.960938 406.972656 478.566406 410.722656 474.304688 413.4375 C 470.03125 416.15625 465.234375 417.515625 459.902344 417.515625 C 454.875 417.515625 450.21875 416.15625 445.957031 413.4375 C 441.6875 410.722656 438.300781 406.976562 435.785156 402.195312 C 433.273438 397.417969 432.011719 391.984375 432.011719 385.886719 C 432.011719 379.628906 433.273438 374.109375 435.785156 369.332031 C 438.300781 364.554688 441.6875 360.804688 445.957031 358.085938 C 450.21875 355.367188 454.945312 354.007812 460.128906 354.007812 C 465.460938 354.007812 470.261719 355.367188 474.53125 358.085938 C 478.792969 360.804688 482.148438 364.554688 484.585938 369.332031 C 487.023438 374.109375 488.25 379.628906 488.25 385.886719 C 488.25 391.984375 486.992188 397.417969 484.472656 402.195312 Z M 511.335938 361.792969 C 508.59375 354.460938 504.820312 348.039062 500.019531 342.515625 C 495.222656 337 489.695312 332.675781 483.445312 329.542969 C 477.199219 326.417969 470.648438 324.851562 463.789062 324.851562 C 456.320312 324.851562 449.730469 326.417969 444.015625 329.542969 C 439.085938 332.246094 434.78125 335.832031 431.101562 340.308594 L 431.101562 284.570312 C 431.101562 281.773438 430.871094 279.21875 430.414062 276.910156 C 429.953125 274.605469 428.8125 272.792969 426.984375 271.472656 C 425.160156 270.15625 422.105469 269.496094 417.84375 269.496094 C 413.570312 269.496094 410.492188 270.15625 408.585938 271.472656 C 406.679688 272.792969 405.457031 274.5625 404.929688 276.785156 C 404.390625 279.011719 404.128906 281.605469 404.128906 284.570312 L 404.128906 431.601562 C 404.128906 434.40625 404.390625 436.914062 404.929688 439.136719 C 405.457031 441.359375 406.679688 443.175781 408.585938 444.574219 C 410.492188 445.972656 413.574219 446.675781 417.84375 446.675781 C 422.261719 446.675781 425.421875 445.890625 427.328125 444.332031 C 429.234375 442.765625 430.492188 440.171875 431.101562 436.542969 L 431.101562 431.179688 C 434.699219 435.472656 438.933594 438.953125 443.789062 441.609375 C 449.652344 444.820312 456.320312 446.425781 463.789062 446.425781 C 470.792969 446.425781 477.390625 444.859375 483.5625 441.730469 C 489.734375 438.601562 495.222656 434.28125 500.019531 428.757812 C 504.824219 423.242188 508.589844 416.734375 511.335938 409.234375 C 514.078125 401.738281 515.449219 393.710938 515.449219 385.144531 C 515.449219 376.90625 514.078125 369.125 511.335938 361.792969 Z M 511.335938 361.792969 " fill-opacity="1" fill-rule="nonzero"/><path fill="#373435" d="M 645.515625 385.636719 C 645.515625 395.023438 643.917969 403.597656 640.710938 411.335938 C 637.511719 419.078125 633.167969 425.710938 627.683594 431.226562 C 622.195312 436.746094 616.023438 440.988281 609.167969 443.953125 C 602.3125 446.921875 595.300781 448.402344 588.140625 448.402344 L 538.996094 448.402344 C 534.070312 448.402344 530.074219 444.40625 530.074219 439.476562 L 530.074219 385.882812 C 530.074219 377.15625 531.5625 368.996094 534.53125 361.421875 C 537.507812 353.84375 541.65625 347.171875 546.992188 341.40625 C 552.324219 335.640625 558.457031 331.152344 565.390625 327.9375 C 572.324219 324.726562 579.757812 323.121094 587.679688 323.121094 C 598.496094 323.121094 608.253906 325.882812 616.9375 331.402344 C 625.628906 336.921875 632.558594 344.375 637.742188 353.761719 C 642.921875 363.152344 645.511719 373.777344 645.511719 385.640625 Z M 557.671875 375.066406 C 551.769531 375.066406 546.984375 379.855469 546.984375 385.761719 C 546.984375 391.667969 551.769531 396.453125 557.671875 396.453125 C 563.574219 396.453125 568.359375 391.667969 568.359375 385.761719 C 568.359375 379.855469 563.574219 375.066406 557.671875 375.066406 Z M 587.796875 375.066406 C 581.894531 375.066406 577.109375 379.855469 577.109375 385.761719 C 577.109375 391.667969 581.894531 396.453125 587.796875 396.453125 C 593.699219 396.453125 598.484375 391.667969 598.484375 385.761719 C 598.484375 379.855469 593.699219 375.066406 587.796875 375.066406 Z M 617.921875 375.066406 C 612.019531 375.066406 607.234375 379.855469 607.234375 385.761719 C 607.234375 391.667969 612.019531 396.453125 617.921875 396.453125 C 623.824219 396.453125 628.609375 391.667969 628.609375 385.761719 C 628.609375 379.855469 623.824219 375.066406 617.921875 375.066406 Z M 617.921875 375.066406 " fill-opacity="1" fill-rule="nonzero"/><g clip-path="url(#fdbb0f46c6)"><path fill="#373435" d="M 736.496094 341.40625 C 736.496094 345.851562 735.882812 349.105469 734.667969 351.167969 C 733.445312 353.226562 731.84375 354.585938 729.863281 355.242188 C 727.882812 355.90625 725.597656 356.234375 723.003906 356.234375 L 704.261719 355.78125 L 704.261719 402.445312 C 704.261719 405.90625 704.523438 408.707031 705.058594 410.84375 C 705.597656 412.988281 706.433594 414.59375 707.578125 415.664062 C 708.71875 416.738281 710.242188 417.476562 712.144531 417.890625 C 714.050781 418.300781 716.375 418.503906 719.121094 418.503906 C 722.011719 418.503906 724.492188 418.75 726.546875 419.246094 C 728.601562 419.738281 730.164062 420.9375 731.234375 422.828125 C 732.296875 424.726562 732.835938 427.8125 732.835938 432.09375 C 732.835938 436.710938 732.1875 440.042969 730.894531 442.101562 C 729.59375 444.167969 727.917969 445.441406 725.863281 445.933594 C 723.804688 446.425781 721.554688 446.675781 719.121094 446.675781 C 711.652344 446.675781 705.25 445.851562 699.917969 444.207031 C 694.582031 442.558594 690.203125 440 686.777344 436.542969 C 683.347656 433.085938 680.867188 428.597656 679.34375 423.078125 C 677.824219 417.558594 677.058594 411.011719 677.058594 403.433594 L 677.058594 355.640625 L 667 355.738281 C 663.035156 355.578125 660.332031 354.421875 658.882812 352.28125 C 657.433594 350.140625 656.714844 346.511719 656.714844 341.410156 C 656.714844 336.464844 657.585938 332.882812 659.34375 330.65625 C 661.09375 328.433594 663.875 327.324219 667.683594 327.324219 L 677.058594 327.417969 L 677.058594 298.65625 C 677.058594 295.855469 677.285156 293.339844 677.742188 291.117188 C 678.199219 288.894531 679.378906 287.164062 681.285156 285.925781 C 683.191406 284.691406 686.277344 284.074219 690.542969 284.074219 C 694.808594 284.074219 697.890625 284.734375 699.800781 286.050781 C 701.703125 287.371094 702.921875 289.140625 703.460938 291.363281 C 703.988281 293.585938 704.257812 296.101562 704.257812 298.902344 L 704.257812 327.15625 L 722.773438 326.578125 C 725.363281 326.578125 727.6875 326.863281 729.746094 327.441406 C 731.804688 328.019531 733.4375 329.335938 734.664062 331.394531 C 735.878906 333.453125 736.488281 336.792969 736.488281 341.402344 Z M 736.496094 341.40625 " fill-opacity="1" fill-rule="nonzero"/></g><g clip-path="url(#6349df30bf)"><g clip-path="url(#96cb60a63e)"><path fill="url(#4766965b02)" d="M 57.222656 -266.640625 L -83.046875 387.367188 L 354.632812 716.640625 L 494.902344 62.632812 Z M 57.222656 -266.640625 " fill-rule="nonzero"/></g></g></svg>